# xmcd CD database file
#
# Track frame offsets:
#	150
#	25507
#	58086
#	91452
#	113494
#	139823
#	171815
#	193549
#	221810
#	252335
#	304509
#	323911
#	349685
#
# Disc length: 4703 seconds
#
# Revision: 0
# Processed by: cddbd v1.5.2PL0 Copyright (c) Steve Scherf et al.
# Submitted via: CDex 1.70beta2
#
DISCID=b4125d0d
DTITLE=Various Artist - The Art Of Jazz - CD3
DYEAR=2016
DGENRE=Jazz
TTITLE0=Miles Davis - Blue In Green
TTITLE1=John Coltrane - Locomotion
TTITLE2=Dave Brubeck - Strange Meadow Lark
TTITLE3=Bill Evans - What Is There To Say?
TTITLE4=Charles Mingus - Open Letter To Duke
TTITLE5=John Coltrane - Lazy Bird
TTITLE6=Dave Brubeck - Kathy's Waltz
TTITLE7=Charles Mingus - Jelly Roll
TTITLE8=Ornette Coleman - Congeniality
TTITLE9=Miles Davis - All Blues
TTITLE10=Dave Brubeck - Pick Up Sticks
TTITLE11=Charles Mingus - Goodbye Pork Pie Hat
TTITLE12=Bill Evans - Epilogue
EXTD=YEAR: 2016
EXTT0=
EXTT1=
EXTT2=
EXTT3=
EXTT4=
EXTT5=
EXTT6=
EXTT7=
EXTT8=
EXTT9=
EXTT10=
EXTT11=
EXTT12=
PLAYORDER=
